<?xml version="1.0" encoding="UTF-8" standalone="no"?>
<svg
   xmlns:dc="http://purl.org/dc/elements/1.1/"
   xmlns:cc="http://creativecommons.org/ns#"
   xmlns:rdf="http://www.w3.org/1999/02/22-rdf-syntax-ns#"
   xmlns:svg="http://www.w3.org/2000/svg"
   xmlns="http://www.w3.org/2000/svg"
   xmlns:sodipodi="http://sodipodi.sourceforge.net/DTD/sodipodi-0.dtd"
   xmlns:inkscape="http://www.inkscape.org/namespaces/inkscape"
   width="15.438807mm"
   height="17.34584mm"
   viewBox="0 0 15.438807 17.34584"
   version="1.1"
   id="svg865"
   inkscape:version="1.0.2 (e86c870879, 2021-01-15)"
   sodipodi:docname="favicon.svg">
  <defs
     id="defs859" />
  <sodipodi:namedview
     id="base"
     pagecolor="#ffffff"
     bordercolor="#666666"
     borderopacity="1.0"
     inkscape:pageopacity="0.0"
     inkscape:pageshadow="2"
     inkscape:zoom="2.7665615"
     inkscape:cx="38.097644"
     inkscape:cy="80.12747"
     inkscape:document-units="px"
     inkscape:current-layer="layer1"
     inkscape:document-rotation="0"
     showgrid="false"
     fit-margin-top="1"
     fit-margin-left="1"
     fit-margin-right="1"
     fit-margin-bottom="1"
     inkscape:window-width="1920"
     inkscape:window-height="1016"
     inkscape:window-x="0"
     inkscape:window-y="27"
     inkscape:window-maximized="1" />
  <metadata
     id="metadata862">
    <rdf:RDF>
      <cc:Work
         rdf:about="">
        <dc:format>image/svg+xml</dc:format>
        <dc:type
           rdf:resource="http://purl.org/dc/dcmitype/StillImage" />
        <dc:title></dc:title>
      </cc:Work>
    </rdf:RDF>
  </metadata>
  <g
     inkscape:label="Layer 1"
     inkscape:groupmode="layer"
     id="layer1"
     transform="translate(-31.510437,-91.959779)">
    <g
       id="g1458">
      <path
         style="fill:#00b300;fill-opacity:1;stroke:none;stroke-width:0.170986;stroke-miterlimit:4;stroke-dasharray:none"
         d="m 32.510437,96.43209 0.10994,4.61748 c 2.080395,0.39198 4.273387,0.48568 6.376523,0.21988 -0.09178,-0.72616 0.03021,-1.635757 -0.260263,-2.308738 -0.977765,-2.2657 -4.318169,-1.74603 -6.2262,-2.528622 m 7.036164,4.61748 6.376515,-1.209337 V 96.43209 c -1.86667,0.533652 -5.340576,0.39292 -6.213475,2.528622 -0.262747,0.642864 -0.16304,1.408858 -0.16304,2.088858 m 1.429211,0 v 0.10994 l 4.947304,0.5497 v -1.31928 l -4.947304,0.65964 m -1.429211,0.65964 v 6.48647 c 0.941399,-0.66316 1.625693,-1.45627 2.748492,-1.85906 1.051685,-0.37726 2.541597,-0.26877 3.360435,-1.15224 0.362577,-0.39113 0.267588,-1.00565 0.267588,-1.49625 0,-0.36235 0.107308,-0.94965 -0.113015,-1.26321 -0.276607,-0.39384 -1.100715,-0.45922 -1.536086,-0.53824 -1.59549,-0.28961 -3.127121,-0.21049 -4.727414,-0.17747 m -6.926224,0 v 1.31929 l 4.837364,-1.09941 c -1.190704,-0.49963 -3.523944,-0.21625 -4.837364,-0.21988 m 0,1.86898 c 0,0.47562 -0.13791,1.21104 0.176277,1.60737 0.624875,0.78825 2.011193,0.80222 2.902045,1.01999 1.274387,0.31157 2.394018,1.06052 3.188262,2.10007 H 38.9969 v -6.48647 z"
         id="path1475" />
      <path
         id="path2066"
         style="fill:#00b300;fill-opacity:1;stroke:none;stroke-width:0.149659;stroke-linecap:round;stroke-linejoin:round;stroke-miterlimit:4;stroke-dasharray:none"
         d="m 40.647076,96.572466 a 1.4770279,1.2686325 0 0 1 -1.474341,1.26863 1.4770279,1.2686325 0 0 1 -1.479705,-1.264013 1.4770279,1.2686325 0 0 1 1.468956,-1.273231 1.4770279,1.2686325 0 0 1 1.485051,1.259381" />
      <path
         style="color:#000000;font-style:normal;font-variant:normal;font-weight:normal;font-stretch:normal;font-size:medium;line-height:normal;font-family:sans-serif;font-variant-ligatures:normal;font-variant-position:normal;font-variant-caps:normal;font-variant-numeric:normal;font-variant-alternates:normal;font-variant-east-asian:normal;font-feature-settings:normal;font-variation-settings:normal;text-indent:0;text-align:start;text-decoration:none;text-decoration-line:none;text-decoration-style:solid;text-decoration-color:#000000;letter-spacing:normal;word-spacing:normal;text-transform:none;writing-mode:lr-tb;direction:ltr;text-orientation:mixed;dominant-baseline:auto;baseline-shift:baseline;text-anchor:start;white-space:normal;shape-padding:0;shape-margin:0;inline-size:0;clip-rule:nonzero;display:inline;overflow:visible;visibility:visible;opacity:0.75;isolation:auto;mix-blend-mode:normal;color-interpolation:sRGB;color-interpolation-filters:linearRGB;solid-color:#000000;solid-opacity:1;vector-effect:none;fill:#000000;fill-opacity:1;fill-rule:nonzero;stroke:none;stroke-width:0.752905;stroke-linecap:square;stroke-linejoin:miter;stroke-miterlimit:4;stroke-dasharray:none;stroke-dashoffset:0;stroke-opacity:1;color-rendering:auto;image-rendering:auto;shape-rendering:auto;text-rendering:auto;enable-background:accumulate;stop-color:#000000"
         d="m 36.398744,93.395997 -0.05203,0.03804 c 0.619739,0.80362 1.188277,1.589273 1.727023,2.286615 l 0.144405,-0.111049 C 37.606466,94.820709 36.922301,94.07345 36.398743,93.396002 Z"
         id="path2080"
         sodipodi:nodetypes="ccccc" />
      <circle
         style="opacity:0.75;fill:#00b300;fill-opacity:1;stroke:none;stroke-width:0.182203;stroke-linecap:square;stroke-miterlimit:4;stroke-dasharray:none"
         id="path961"
         cx="17.432425"
         cy="98.483574"
         r="0.25144446"
         transform="rotate(-11.202618)" />
      <path
         style="color:#000000;font-style:normal;font-variant:normal;font-weight:normal;font-stretch:normal;font-size:medium;line-height:normal;font-family:sans-serif;font-variant-ligatures:normal;font-variant-position:normal;font-variant-caps:normal;font-variant-numeric:normal;font-variant-alternates:normal;font-variant-east-asian:normal;font-feature-settings:normal;font-variation-settings:normal;text-indent:0;text-align:start;text-decoration:none;text-decoration-line:none;text-decoration-style:solid;text-decoration-color:#000000;letter-spacing:normal;word-spacing:normal;text-transform:none;writing-mode:lr-tb;direction:ltr;text-orientation:mixed;dominant-baseline:auto;baseline-shift:baseline;text-anchor:start;white-space:normal;shape-padding:0;shape-margin:0;inline-size:0;clip-rule:nonzero;display:inline;overflow:visible;visibility:visible;opacity:0.75;isolation:auto;mix-blend-mode:normal;color-interpolation:sRGB;color-interpolation-filters:linearRGB;solid-color:#000000;solid-opacity:1;vector-effect:none;fill:#000000;fill-opacity:1;fill-rule:nonzero;stroke:none;stroke-width:0.752905;stroke-linecap:square;stroke-linejoin:miter;stroke-miterlimit:4;stroke-dasharray:none;stroke-dashoffset:0;stroke-opacity:1;color-rendering:auto;image-rendering:auto;shape-rendering:auto;text-rendering:auto;enable-background:accumulate;stop-color:#000000"
         d="m 41.929648,93.38689 0.05203,0.03804 c -0.619743,0.80362 -1.18828,1.589273 -1.727027,2.286614 l -0.144402,-0.111049 c 0.611675,-0.788893 1.295841,-1.536152 1.819399,-2.213601 z"
         id="path977"
         sodipodi:nodetypes="ccccc" />
      <circle
         style="opacity:0.75;fill:#00b300;fill-opacity:1;stroke:none;stroke-width:0.182203;stroke-linecap:square;stroke-miterlimit:4;stroke-dasharray:none"
         id="circle979"
         cx="-59.401752"
         cy="83.257057"
         r="0.25144446"
         transform="matrix(-0.98094628,-0.19427917,-0.19427917,0.98094628,0,0)" />
    </g>
  </g>
</svg>
