<svg xmlns="http://www.w3.org/2000/svg" width="209.207" height="62" viewBox="0 0 55.353 16.404"><defs><path id="a" d="M84.111-6.571h97.051v34.419H84.111z"/></defs><g transform="translate(-.556 1.107)"><path style="fill:#00b300;fill-opacity:1;stroke:none;stroke-width:.170986;stroke-miterlimit:4;stroke-dasharray:none" d="m1.085 2.895.11 4.617c2.08.392 4.273.486 6.376.22-.092-.726.03-1.636-.26-2.309-.978-2.265-4.318-1.746-6.226-2.528M8.12 7.512l6.376-1.21V2.896c-1.866.533-5.34.393-6.213 2.528-.263.643-.163 1.41-.163 2.09m1.43 0v.109l4.946.55v-1.32l-4.947.66m-1.43.66v6.486c.942-.663 1.627-1.456 2.75-1.859 1.051-.377 2.541-.269 3.36-1.152.362-.391.267-1.006.267-1.496 0-.363.108-.95-.113-1.264-.276-.393-1.1-.459-1.536-.538-1.595-.29-3.127-.21-4.727-.177m-6.926 0V9.49l4.837-1.1c-1.19-.499-3.524-.216-4.837-.22m0 1.87c0 .475-.138 1.21.176 1.607.625.788 2.011.802 2.902 1.02a5.735 5.735 0 0 1 3.188 2.1h.11V8.282z"/><path style="fill:#00b300;fill-opacity:1;stroke:none;stroke-width:.149659;stroke-linecap:round;stroke-linejoin:round;stroke-miterlimit:4;stroke-dasharray:none" d="M9.221 3.035a1.477 1.269 0 0 1-1.474 1.269 1.477 1.269 0 0 1-1.48-1.264 1.477 1.269 0 0 1 1.47-1.274 1.477 1.269 0 0 1 1.484 1.26"/><text xml:space="preserve" style="font-style:normal;font-weight:400;font-size:7.96822px;line-height:1.25;font-family:sans-serif;letter-spacing:.0996033px;fill:#33333d;fill-opacity:1;stroke:none;stroke-width:.199206" x="16.91" y="8.286" transform="translate(0 .53)"><tspan x="16.91" y="8.286" style="fill:#33333d;fill-opacity:1;stroke-width:.199206">LEBANON</tspan></text><text xml:space="preserve" style="font-style:normal;font-weight:400;font-size:7.96822px;line-height:1.25;font-family:sans-serif;fill:#33333d;fill-opacity:1;stroke:none;stroke-width:.199206" x="17.275" y="13.127" transform="translate(0 .53)"><tspan x="17.275" y="13.127" style="font-style:normal;font-variant:normal;font-weight:400;font-stretch:normal;font-size:4.24973px;font-family:sans-serif;-inkscape-font-specification:'sans-serif, Normal';font-variant-ligatures:normal;font-variant-caps:normal;font-variant-numeric:normal;font-variant-east-asian:normal;fill:#33333d;fill-opacity:1;stroke-width:.199206">PUBLIC LIBRARIES</tspan></text><path style="color:#000;font-style:normal;font-variant:normal;font-weight:400;font-stretch:normal;font-size:medium;line-height:normal;font-family:sans-serif;font-variant-ligatures:normal;font-variant-position:normal;font-variant-caps:normal;font-variant-numeric:normal;font-variant-alternates:normal;font-variant-east-asian:normal;font-feature-settings:normal;font-variation-settings:normal;text-indent:0;text-align:start;text-decoration:none;text-decoration-line:none;text-decoration-style:solid;text-decoration-color:#000;letter-spacing:normal;word-spacing:normal;text-transform:none;writing-mode:lr-tb;direction:ltr;text-orientation:mixed;dominant-baseline:auto;baseline-shift:baseline;text-anchor:start;white-space:normal;shape-padding:0;shape-margin:0;inline-size:0;clip-rule:nonzero;display:inline;overflow:visible;visibility:visible;opacity:.75;isolation:auto;mix-blend-mode:normal;color-interpolation:sRGB;color-interpolation-filters:linearRGB;solid-color:#000;solid-opacity:1;vector-effect:none;fill:#000;fill-opacity:1;fill-rule:nonzero;stroke:none;stroke-width:.752905;stroke-linecap:square;stroke-linejoin:miter;stroke-miterlimit:4;stroke-dasharray:none;stroke-dashoffset:0;stroke-opacity:1;color-rendering:auto;image-rendering:auto;shape-rendering:auto;text-rendering:auto;enable-background:accumulate;stop-color:#000" d="m4.973-.142-.052.039c.62.803 1.188 1.589 1.727 2.286l.144-.11C6.181 1.282 5.497.535 4.973-.143z"/><circle style="opacity:.75;fill:#00b300;fill-opacity:1;stroke:none;stroke-width:.182203;stroke-linecap:square;stroke-miterlimit:4;stroke-dasharray:none" cx="4.778" cy=".623" r=".251" transform="rotate(-11.203)"/><path style="color:#000;font-style:normal;font-variant:normal;font-weight:400;font-stretch:normal;font-size:medium;line-height:normal;font-family:sans-serif;font-variant-ligatures:normal;font-variant-position:normal;font-variant-caps:normal;font-variant-numeric:normal;font-variant-alternates:normal;font-variant-east-asian:normal;font-feature-settings:normal;font-variation-settings:normal;text-indent:0;text-align:start;text-decoration:none;text-decoration-line:none;text-decoration-style:solid;text-decoration-color:#000;letter-spacing:normal;word-spacing:normal;text-transform:none;writing-mode:lr-tb;direction:ltr;text-orientation:mixed;dominant-baseline:auto;baseline-shift:baseline;text-anchor:start;white-space:normal;shape-padding:0;shape-margin:0;inline-size:0;clip-rule:nonzero;display:inline;overflow:visible;visibility:visible;opacity:.75;isolation:auto;mix-blend-mode:normal;color-interpolation:sRGB;color-interpolation-filters:linearRGB;solid-color:#000;solid-opacity:1;vector-effect:none;fill:#000;fill-opacity:1;fill-rule:nonzero;stroke:none;stroke-width:.752905;stroke-linecap:square;stroke-linejoin:miter;stroke-miterlimit:4;stroke-dasharray:none;stroke-dashoffset:0;stroke-opacity:1;color-rendering:auto;image-rendering:auto;shape-rendering:auto;text-rendering:auto;enable-background:accumulate;stop-color:#000" d="m10.504-.15.052.037c-.62.804-1.188 1.59-1.727 2.287l-.144-.111C9.296 1.274 9.98.527 10.504-.151z"/><circle style="opacity:.75;fill:#00b300;fill-opacity:1;stroke:none;stroke-width:.182203;stroke-linecap:square;stroke-miterlimit:4;stroke-dasharray:none" cx="-10.402" cy="-2.393" r=".251" transform="scale(-1 1) rotate(-11.203)"/></g></svg>